<mxfile host="Electron" agent="Mozilla/5.0 (Macintosh; Intel Mac OS X 10_15_7) AppleWebKit/537.36 (KHTML, like Gecko) draw.io/28.1.2 Chrome/138.0.7204.243 Electron/37.4.0 Safari/537.36" version="28.1.2">
  <diagram name="Page-1" id="4NkYenEU0xUayhbWGc0o">
    <mxGraphModel dx="1429" dy="2222" grid="1" gridSize="10" guides="1" tooltips="1" connect="1" arrows="1" fold="1" page="1" pageScale="1" pageWidth="827" pageHeight="1169" math="0" shadow="0">
      <root>
        <mxCell id="0" />
        <mxCell id="1" parent="0" />
        <mxCell id="oEATPm682kuTSCei879a-1" value="RKE2 Kubernetes Cluster Air-Gapped" style="whiteSpace=wrap;strokeWidth=2;" vertex="1" parent="1">
          <mxGeometry x="20" y="-53" width="1009" height="760" as="geometry" />
        </mxCell>
        <mxCell id="oEATPm682kuTSCei879a-2" value="Worker Node 2" style="whiteSpace=wrap;strokeWidth=2;" vertex="1" parent="1">
          <mxGeometry x="344" y="697" width="629" height="231" as="geometry" />
        </mxCell>
        <mxCell id="oEATPm682kuTSCei879a-3" value="Worker Node 1" style="whiteSpace=wrap;strokeWidth=2;" vertex="1" parent="1">
          <mxGeometry x="350" y="205" width="375" height="406" as="geometry" />
        </mxCell>
        <mxCell id="oEATPm682kuTSCei879a-4" value="External Zone" style="whiteSpace=wrap;strokeWidth=2;" vertex="1" parent="1">
          <mxGeometry x="350" y="20" width="330" height="279" as="geometry" />
        </mxCell>
        <mxCell id="oEATPm682kuTSCei879a-5" value="User or Browser or API Client" style="whiteSpace=wrap;strokeWidth=2;" vertex="1" parent="1">
          <mxGeometry x="385" y="126" width="260" height="78" as="geometry" />
        </mxCell>
        <mxCell id="oEATPm682kuTSCei879a-6" value="F5 or HAProxy Load Balancer" style="whiteSpace=wrap;strokeWidth=2;" vertex="1" parent="1">
          <mxGeometry x="385" y="207" width="260" height="78" as="geometry" />
        </mxCell>
        <mxCell id="oEATPm682kuTSCei879a-7" value="NGINX Ingress Controller Pod" style="whiteSpace=wrap;strokeWidth=2;" vertex="1" parent="1">
          <mxGeometry x="385" y="450" width="260" height="78" as="geometry" />
        </mxCell>
        <mxCell id="oEATPm682kuTSCei879a-8" value="Cilium Agent eBPF datapath" style="whiteSpace=wrap;strokeWidth=2;" vertex="1" parent="1">
          <mxGeometry x="399" y="704" width="260" height="54" as="geometry" />
        </mxCell>
        <mxCell id="oEATPm682kuTSCei879a-9" value="Backend Pod 1 my-app" style="whiteSpace=wrap;strokeWidth=2;" vertex="1" parent="1">
          <mxGeometry x="445" y="947" width="222" height="54" as="geometry" />
        </mxCell>
        <mxCell id="oEATPm682kuTSCei879a-10" value="Backend Pod 2 my-app" style="whiteSpace=wrap;strokeWidth=2;" vertex="1" parent="1">
          <mxGeometry x="717" y="1028" width="222" height="54" as="geometry" />
        </mxCell>
        <mxCell id="oEATPm682kuTSCei879a-11" value="Cilium Agent eBPF datapath" style="whiteSpace=wrap;strokeWidth=2;" vertex="1" parent="1">
          <mxGeometry x="426" y="866" width="260" height="54" as="geometry" />
        </mxCell>
        <mxCell id="oEATPm682kuTSCei879a-12" value="ClusterIP Service my-app-svc" style="whiteSpace=wrap;strokeWidth=2;" vertex="1" parent="1">
          <mxGeometry x="55" y="531" width="260" height="78" as="geometry" />
        </mxCell>
        <mxCell id="oEATPm682kuTSCei879a-13" value="Hubble Observability UI" style="whiteSpace=wrap;strokeWidth=2;" vertex="1" parent="1">
          <mxGeometry x="765" y="623" width="229" height="54" as="geometry" />
        </mxCell>
        <mxCell id="oEATPm682kuTSCei879a-14" value="HTTPS 443" style="curved=1;startArrow=none;endArrow=block;exitX=0.42;exitY=1;entryX=0.42;entryY=0;rounded=0;" edge="1" parent="1" source="oEATPm682kuTSCei879a-5" target="oEATPm682kuTSCei879a-6">
          <mxGeometry relative="1" as="geometry">
            <Array as="points">
              <mxPoint x="476" y="160" />
            </Array>
          </mxGeometry>
        </mxCell>
        <mxCell id="oEATPm682kuTSCei879a-15" value="VIP or NodePort" style="curved=1;startArrow=none;endArrow=block;exitX=0.39;exitY=1;entryX=0.39;entryY=0;rounded=0;" edge="1" parent="1" source="oEATPm682kuTSCei879a-6" target="oEATPm682kuTSCei879a-7">
          <mxGeometry relative="1" as="geometry">
            <Array as="points">
              <mxPoint x="466" y="299" />
              <mxPoint x="466" y="397" />
            </Array>
          </mxGeometry>
        </mxCell>
        <mxCell id="oEATPm682kuTSCei879a-16" value="Ingress rule" style="curved=1;startArrow=none;endArrow=block;exitX=0.4;exitY=1;entryX=1;entryY=0.05;rounded=0;" edge="1" parent="1" source="oEATPm682kuTSCei879a-7" target="oEATPm682kuTSCei879a-12">
          <mxGeometry relative="1" as="geometry">
            <Array as="points">
              <mxPoint x="464" y="537" />
            </Array>
          </mxGeometry>
        </mxCell>
        <mxCell id="oEATPm682kuTSCei879a-17" value="eBPF Load-Balancing" style="curved=1;startArrow=none;endArrow=block;exitX=1;exitY=0.95;entryX=0.39;entryY=0;rounded=0;" edge="1" parent="1" source="oEATPm682kuTSCei879a-12" target="oEATPm682kuTSCei879a-8">
          <mxGeometry relative="1" as="geometry">
            <Array as="points">
              <mxPoint x="464" y="688" />
            </Array>
          </mxGeometry>
        </mxCell>
        <mxCell id="oEATPm682kuTSCei879a-18" value="Encap or Route" style="curved=1;startArrow=none;endArrow=block;exitX=0.35;exitY=1;entryX=0.29;entryY=0;rounded=0;" edge="1" parent="1" source="oEATPm682kuTSCei879a-8" target="oEATPm682kuTSCei879a-11">
          <mxGeometry relative="1" as="geometry">
            <Array as="points">
              <mxPoint x="452" y="803" />
              <mxPoint x="452" y="876" />
            </Array>
          </mxGeometry>
        </mxCell>
        <mxCell id="oEATPm682kuTSCei879a-19" value="Deliver packet" style="curved=1;startArrow=none;endArrow=block;exitX=0.35;exitY=1;entryX=0.32;entryY=0;rounded=0;" edge="1" parent="1" source="oEATPm682kuTSCei879a-11" target="oEATPm682kuTSCei879a-9">
          <mxGeometry relative="1" as="geometry">
            <Array as="points">
              <mxPoint x="464" y="992" />
            </Array>
          </mxGeometry>
        </mxCell>
        <mxCell id="oEATPm682kuTSCei879a-20" value="HTTP Response" style="curved=1;startArrow=none;endArrow=block;exitX=0.8;exitY=0;entryX=0.76;entryY=1;rounded=0;" edge="1" parent="1" source="oEATPm682kuTSCei879a-9" target="oEATPm682kuTSCei879a-11">
          <mxGeometry relative="1" as="geometry">
            <Array as="points">
              <mxPoint x="713" y="992" />
            </Array>
          </mxGeometry>
        </mxCell>
        <mxCell id="oEATPm682kuTSCei879a-21" value="Return Path" style="curved=1;startArrow=none;endArrow=block;exitX=0.63;exitY=0;entryX=0.68;entryY=1;rounded=0;" edge="1" parent="1" source="oEATPm682kuTSCei879a-11" target="oEATPm682kuTSCei879a-8">
          <mxGeometry relative="1" as="geometry">
            <Array as="points">
              <mxPoint x="620" y="876" />
              <mxPoint x="620" y="803" />
            </Array>
          </mxGeometry>
        </mxCell>
        <mxCell id="oEATPm682kuTSCei879a-22" value="Return" style="curved=1;startArrow=none;endArrow=block;exitX=0.55;exitY=0;entryX=0.59;entryY=1;rounded=0;" edge="1" parent="1" source="oEATPm682kuTSCei879a-8" target="oEATPm682kuTSCei879a-7">
          <mxGeometry relative="1" as="geometry">
            <Array as="points">
              <mxPoint x="560" y="688" />
              <mxPoint x="560" y="537" />
            </Array>
          </mxGeometry>
        </mxCell>
        <mxCell id="oEATPm682kuTSCei879a-23" value="Response" style="curved=1;startArrow=none;endArrow=block;exitX=0.7;exitY=0;entryX=0.7;entryY=1;rounded=0;" edge="1" parent="1" source="oEATPm682kuTSCei879a-7" target="oEATPm682kuTSCei879a-6">
          <mxGeometry relative="1" as="geometry">
            <Array as="points">
              <mxPoint x="601" y="397" />
              <mxPoint x="601" y="299" />
            </Array>
          </mxGeometry>
        </mxCell>
        <mxCell id="oEATPm682kuTSCei879a-24" value="Response" style="curved=1;startArrow=none;endArrow=block;exitX=0.64;exitY=0;entryX=0.64;entryY=1;rounded=0;" edge="1" parent="1" source="oEATPm682kuTSCei879a-6" target="oEATPm682kuTSCei879a-5">
          <mxGeometry relative="1" as="geometry">
            <Array as="points">
              <mxPoint x="584" y="160" />
            </Array>
          </mxGeometry>
        </mxCell>
        <mxCell id="oEATPm682kuTSCei879a-25" value="Monitor flows" style="curved=1;dashed=1;dashPattern=2 3;startArrow=none;endArrow=block;exitX=0.13;exitY=1;entryX=0.69;entryY=0;rounded=0;" edge="1" parent="1" source="oEATPm682kuTSCei879a-13" target="oEATPm682kuTSCei879a-8">
          <mxGeometry relative="1" as="geometry">
            <Array as="points">
              <mxPoint x="643" y="688" />
            </Array>
          </mxGeometry>
        </mxCell>
        <mxCell id="oEATPm682kuTSCei879a-26" value="" style="curved=1;dashed=1;dashPattern=2 3;startArrow=none;endArrow=block;exitX=0.5;exitY=1;entryX=1;entryY=0.11;rounded=0;" edge="1" parent="1" source="oEATPm682kuTSCei879a-13" target="oEATPm682kuTSCei879a-11">
          <mxGeometry relative="1" as="geometry">
            <Array as="points">
              <mxPoint x="879" y="876" />
            </Array>
          </mxGeometry>
        </mxCell>
      </root>
    </mxGraphModel>
  </diagram>
</mxfile>
